<?xml version="1.0" encoding="UTF-8" standalone="no"?>
<!-- Created with Inkscape (http://www.inkscape.org/) -->

<svg
   width="100"
   height="90.800003"
   viewBox="0 0 26.458333 24.024167"
   version="1.1"
   id="svg1"
   inkscape:version="1.3.2 (091e20e, 2023-11-25, custom)"
   sodipodi:docname="lt-pressed.svg"
   xmlns:inkscape="http://www.inkscape.org/namespaces/inkscape"
   xmlns:sodipodi="http://sodipodi.sourceforge.net/DTD/sodipodi-0.dtd"
   xmlns="http://www.w3.org/2000/svg"
   xmlns:svg="http://www.w3.org/2000/svg">
  <sodipodi:namedview
     id="namedview1"
     pagecolor="#ffffff"
     bordercolor="#666666"
     borderopacity="1.0"
     inkscape:showpageshadow="2"
     inkscape:pageopacity="0.0"
     inkscape:pagecheckerboard="0"
     inkscape:deskcolor="#d1d1d1"
     inkscape:document-units="mm"
     inkscape:zoom="8.95"
     inkscape:cx="50"
     inkscape:cy="45.418994"
     inkscape:window-width="1920"
     inkscape:window-height="1009"
     inkscape:window-x="3832"
     inkscape:window-y="-8"
     inkscape:window-maximized="1"
     inkscape:current-layer="layer1" />
  <defs
     id="defs1" />
  <g
     inkscape:label="Capa 1"
     inkscape:groupmode="layer"
     id="layer1">
    <g
       id="g8"
       transform="scale(0.26458333)">
      <g
         id="g6">
        <path
           class="cls-1"
           d="m 0,90.8 c 0,0 32.7,-3.2 50.6,-3.2 17.9,0 48.3,2.4 48.3,2.4 0,0 -3.1,-44.7 -4.8,-52 C 92.4,30.7 86.4,16.7 77.2,10.1 68,3.5 65.3,0 54.5,0 43.7,0 29.1,6.4 19.9,21.4 10.7,36.4 0,90.8 0,90.8 Z"
           transform="translate(0.1)"
           id="path5"
           style="fill:#ededed" />
        <path
           class="cls-2"
           d="m 98.4,83.2 c 0,0 -26.1,-4.4 -49,-4.4 -22.9,0 -47.9,4.4 -47.9,4.4 -1,4.7 -1.6,7.6 -1.6,7.6 0,0 32.7,-3.2 50.6,-3.2 17.9,0 48.4,2.4 48.4,2.4 0,0 -0.1,-2.7 -0.5,-6.8 z"
           transform="translate(0.1)"
           id="path6"
           style="fill:#f5f5f5" />
      </g>
      <g
         class="cls-3"
         id="g7"
         style="opacity:0.08">
        <path
           d="m 64.5,65.7 -3.2,2.6 a 6.71,6.71 0 0 0 -2,4.5 H 69 v -2.6 h -6.2 a 6.71,6.71 0 0 1 2.1,-1.9 12.47,12.47 0 0 0 2.7,-2.1 4.77,4.77 0 0 0 1.3,-3.3 4.22,4.22 0 0 0 -1.4,-3.3 5.13,5.13 0 0 0 -3.5,-1.2 c -3.1,0 -4.7,1.7 -4.7,5 H 62 q 0,-2.7 2.1,-2.7 a 1.83,1.83 0 0 1 2,2.1 3.17,3.17 0 0 1 -1.6,2.9 z"
           transform="translate(0.1)"
           id="path7" />
        <polygon
           points="56.1,70.2 49,70.2 49,58.5 46,58.5 46,72.8 56.1,72.8 "
           id="polygon7" />
      </g>
    </g>
  </g>
</svg>
