<?xml version="1.0" encoding="UTF-8" standalone="no"?>
<svg
   id="Layer_2"
   data-name="Layer 2"
   width="47.380001"
   height="47.380001"
   viewBox="0 0 47.379999 47.38"
   version="1.1"
   sodipodi:docname="p-circle.svg"
   inkscape:version="1.3.2 (091e20e, 2023-11-25, custom)"
   xmlns:inkscape="http://www.inkscape.org/namespaces/inkscape"
   xmlns:sodipodi="http://sodipodi.sourceforge.net/DTD/sodipodi-0.dtd"
   xmlns="http://www.w3.org/2000/svg"
   xmlns:svg="http://www.w3.org/2000/svg">
  <sodipodi:namedview
     id="namedview2"
     pagecolor="#ffffff"
     bordercolor="#666666"
     borderopacity="1.0"
     inkscape:showpageshadow="2"
     inkscape:pageopacity="0.0"
     inkscape:pagecheckerboard="0"
     inkscape:deskcolor="#d1d1d1"
     inkscape:zoom="17.159138"
     inkscape:cx="23.690001"
     inkscape:cy="23.690001"
     inkscape:window-width="1920"
     inkscape:window-height="1009"
     inkscape:window-x="3832"
     inkscape:window-y="-8"
     inkscape:window-maximized="1"
     inkscape:current-layer="Layer_2" />
  <defs
     id="defs1">
    <style
       id="style1">
      .cls-1 {
        fill: #141414;
      }

      .cls-1, .cls-2 {
        stroke-width: 0px;
      }

      .cls-2 {
        fill: #0071bc;
      }
    </style>
  </defs>
  <g
     id="g22"
     inkscape:label="TRIANGLE"
     transform="matrix(0.86776557,0,0,0.86776557,-146.99949,-1.1279363)"
     style="display:none">
    <g
       id="g21">
      <path
         class="cls-7"
         d="M 196.7,54.8 A 26.3,26.3 0 1 1 223,28.6 26.33,26.33 0 0 1 196.7,54.8 Z"
         id="path20"
         style="fill:#1a1a1a" />
      <path
         class="cls-8"
         d="M 196.8,3.3 A 25.3,25.3 0 1 1 171.5,28.6 25.33,25.33 0 0 1 196.8,3.3 m 0,-2 A 27.3,27.3 0 1 0 224,28.6 27.34,27.34 0 0 0 196.8,1.3 Z"
         id="path21"
         style="fill:#0f0f0f" />
    </g>
    <path
       class="cls-12"
       d="m 212.7,36.6 -16,-27.6 -16,27.6 -1.6,2.8 h 35.2 z m -15.9,0 h -12.7 l 12.7,-21.9 12.7,21.9 z"
       id="path22"
       style="fill:#66c194" />
  </g>
  <g
     id="g19"
     inkscape:label="SQUARE"
     transform="matrix(0.86935853,0,0,0.86935853,-98.324489,-0.60855098)"
     style="display:none">
    <g
       id="g18">
      <path
         class="cls-7"
         d="M 140.3,54.2 A 26.25,26.25 0 1 1 166.6,28 26.23,26.23 0 0 1 140.3,54.2 Z"
         id="path17"
         style="fill:#1a1a1a" />
      <path
         class="cls-8"
         d="M 140.3,2.7 A 25.25,25.25 0 1 1 115,27.9 25.33,25.33 0 0 1 140.3,2.7 m 0,-2 A 27.25,27.25 0 1 0 167.6,28 27.34,27.34 0 0 0 140.3,0.7 Z"
         id="path18"
         style="fill:#0f0f0f" />
    </g>
    <path
       class="cls-11"
       d="M 151.8,13.5 H 126 v 28.6 h 28.6 V 13.5 Z m 0,25.9 h -23 v -23 h 23 z"
       id="path19"
       style="fill:#cb79b1" />
  </g>
  <g
     id="g17"
     inkscape:label="CROSS"
     transform="matrix(0.86776531,0,0,0.86776531,0,1.4335339e-5)"
     style="display:none">
    <g
       id="g16">
      <path
         class="cls-7"
         d="M 27.2,53.5 A 26.25,26.25 0 1 1 53.5,27.3 26.29,26.29 0 0 1 27.2,53.5 Z"
         id="path15"
         style="fill:#1a1a1a" />
      <path
         class="cls-8"
         d="M 27.3,2 A 25.25,25.25 0 1 1 2,27.3 25.33,25.33 0 0 1 27.3,2 m 0,-2 A 27.3,27.3 0 1 0 54.6,27.3 27.27,27.27 0 0 0 27.3,0 Z"
         id="path16"
         style="fill:#0f0f0f" />
    </g>
    <polygon
       class="cls-10"
       points="39.6,12.9 27.3,25.2 14.9,12.9 12.9,14.9 25.2,27.2 12.9,39.6 14.9,41.6 27.3,29.3 39.6,41.6 41.6,39.6 29.3,27.2 41.6,14.9 "
       id="polygon16"
       style="fill:#7fb1df" />
  </g>
  <g
     id="g14"
     inkscape:label="CIRCLE"
     transform="matrix(0.86776557,0,0,0.86776557,-48.941978,1.5893195e-4)"
     style="display:none">
    <g
       id="g13">
      <path
         class="cls-7"
         d="M 83.8,53.5 A 26.25,26.25 0 1 1 110,27.2 26.33,26.33 0 0 1 83.8,53.5 Z"
         id="path12"
         style="fill:#1a1a1a" />
      <path
         class="cls-8"
         d="M 83.8,2 A 25.25,25.25 0 1 1 58.5,27.3 25.24,25.24 0 0 1 83.8,2 m 0,-2 A 27.3,27.3 0 1 0 111,27.3 27.34,27.34 0 0 0 83.8,0 Z"
         id="path13"
         style="fill:#0f0f0f" />
    </g>
    <path
       class="cls-9"
       d="M 83.8,8.4 A 18.9,18.9 0 1 0 102.7,27.3 18.95,18.95 0 0 0 83.8,8.4 Z m 0,34.9 a 16,16 0 1 1 16,-16 16,16 0 0 1 -16,16 z"
       id="path14"
       style="fill:#f16667" />
  </g>
  <g
     id="g11"
     inkscape:label="PRESS TRIANGLE"
     transform="matrix(0.86935853,0,0,0.86935853,-147.35631,-50.248883)"
     style="display:none">
    <g
       id="g10">
      <path
         class="cls-1"
         d="M 196.7,111.3 A 26.25,26.25 0 1 1 223,85.1 26.33,26.33 0 0 1 196.7,111.3 Z"
         id="path9"
         style="fill:#e6e6e6" />
      <path
         class="cls-2"
         d="m 196.8,59.8 a 25.25,25.25 0 1 1 -25.3,25.3 25.31,25.31 0 0 1 25.3,-25.3 m 0,-2 A 27.25,27.25 0 1 0 224,85.1 27.31,27.31 0 0 0 196.8,57.8 Z"
         id="path10"
         style="fill:#f0f0f0" />
    </g>
    <path
       class="cls-6"
       d="m 212.7,93.1 -16,-27.6 -16,27.6 -1.6,2.8 h 35.2 z m -15.9,0 h -12.7 l 12.7,-21.9 12.7,21.9 z"
       id="path11"
       style="fill:#be1e5f" />
  </g>
  <g
     id="g8"
     inkscape:label="PRESS SQUARE"
     transform="matrix(0.8693578,0,0,0.8693578,-98.324411,-50.248881)"
     style="display:none">
    <g
       id="g7">
      <path
         class="cls-1"
         d="M 140.3,111.3 A 26.25,26.25 0 1 1 166.6,85 26.25,26.25 0 0 1 140.3,111.3 Z"
         id="path6"
         style="fill:#e6e6e6" />
      <path
         class="cls-2"
         d="M 140.3,59.8 A 25.25,25.25 0 1 1 115,85.1 25.31,25.31 0 0 1 140.3,59.8 m 0,-2 A 27.25,27.25 0 1 0 167.6,85 27.31,27.31 0 0 0 140.3,57.8 Z"
         id="path7"
         style="fill:#f0f0f0" />
    </g>
    <path
       class="cls-5"
       d="M 151.8,70.7 H 126 v 28.6 h 28.6 V 70.7 Z m 0,25.9 h -23 v -23 h 23 z"
       id="path8"
       style="fill:#079647" />
  </g>
  <g
     id="g6"
     inkscape:label="PRESS CROSS"
     transform="matrix(0.86776557,0,0,0.86776557,0,-50.15685)"
     style="display:none">
    <g
       id="g5">
      <path
         class="cls-1"
         d="M 27.2,111.3 A 26.2,26.2 0 1 1 53.6,85.1 26.23,26.23 0 0 1 27.2,111.3 Z"
         id="path4"
         style="fill:#e6e6e6" />
      <path
         class="cls-2"
         d="M 27.3,59.8 A 25.25,25.25 0 1 1 2,85.1 25.31,25.31 0 0 1 27.3,59.8 m 0,-2 A 27.3,27.3 0 1 0 54.6,85.1 27.34,27.34 0 0 0 27.3,57.8 Z"
         id="path5"
         style="fill:#f0f0f0" />
    </g>
    <polygon
       class="cls-4"
       points="41.6,97.4 29.3,85.1 41.6,72.7 39.6,70.7 27.3,83.1 14.9,70.7 12.9,72.7 25.2,85.1 12.9,97.4 14.9,99.5 27.3,87.1 39.6,99.5 "
       id="polygon5"
       style="fill:#824e20" />
  </g>
  <g
     id="g3"
     inkscape:label="PRESS CIRCLE"
     transform="matrix(0.86935853,0,0,0.86935853,-49.118797,-50.248883)">
    <g
       id="g2">
      <path
         class="cls-1"
         d="M 83.8,111.3 A 26.25,26.25 0 1 1 110,85.1 26.33,26.33 0 0 1 83.8,111.3 Z"
         id="path1"
         style="fill:#e6e6e6" />
      <path
         class="cls-2"
         d="M 83.8,59.8 A 25.25,25.25 0 1 1 58.5,85.1 25.31,25.31 0 0 1 83.8,59.8 m 0,-2 A 27.25,27.25 0 1 0 111,85.1 27.31,27.31 0 0 0 83.8,57.8 Z"
         id="path2"
         style="fill:#f0f0f0" />
    </g>
    <path
       class="cls-3"
       d="M 83.8,66.2 A 18.9,18.9 0 1 0 102.7,85.1 18.95,18.95 0 0 0 83.8,66.2 Z m 0,34.9 a 16,16 0 1 1 16,-16 16,16 0 0 1 -16,16 z"
       id="path3"
       style="fill:#009898" />
  </g>
</svg>
