<?xml version="1.0" encoding="UTF-8" standalone="no"?>
<svg
   id="Layer_2"
   data-name="Layer 2"
   width="47.380001"
   height="47.380001"
   viewBox="0 0 47.38 47.38"
   version="1.1"
   sodipodi:docname="square.svg"
   inkscape:version="1.3.2 (091e20e, 2023-11-25, custom)"
   xmlns:inkscape="http://www.inkscape.org/namespaces/inkscape"
   xmlns:sodipodi="http://sodipodi.sourceforge.net/DTD/sodipodi-0.dtd"
   xmlns="http://www.w3.org/2000/svg"
   xmlns:svg="http://www.w3.org/2000/svg">
  <sodipodi:namedview
     id="namedview2"
     pagecolor="#ffffff"
     bordercolor="#666666"
     borderopacity="1.0"
     inkscape:showpageshadow="2"
     inkscape:pageopacity="0.0"
     inkscape:pagecheckerboard="0"
     inkscape:deskcolor="#d1d1d1"
     inkscape:zoom="17.159138"
     inkscape:cx="23.690001"
     inkscape:cy="23.690001"
     inkscape:window-width="1920"
     inkscape:window-height="1009"
     inkscape:window-x="3832"
     inkscape:window-y="-8"
     inkscape:window-maximized="1"
     inkscape:current-layer="Layer_2" />
  <defs
     id="defs1">
    <style
       id="style1">
      .cls-1 {
        fill: #141414;
      }

      .cls-1, .cls-2 {
        stroke-width: 0px;
      }

      .cls-2 {
        fill: #0071bc;
      }
    </style>
  </defs>
  <g
     id="Layer_1-2"
     data-name="Layer 1"
     style="display:none">
    <g
       id="g2">
      <g
         id="X">
        <path
           class="cls-1"
           d="m 23.68,0 c 13.08,0 23.69,10.6 23.7,23.68 0,13.08 -10.6,23.69 -23.68,23.7 C 10.62,47.39 0,36.78 0,23.7 v 0 C 0,10.61 10.6,0.01 23.68,0 Z"
           id="path1"
           style="display:inline" />
      </g>
      <path
         class="cls-2"
         d="m 30.8,38.83 -6.41,-11 c -0.12,-0.24 -0.22,-0.5 -0.3,-0.76 -0.05,-0.26 -0.13,-0.51 -0.22,-0.76 h -0.09 c -0.11,0.27 -0.19,0.52 -0.27,0.77 -0.09,0.26 -0.2,0.51 -0.33,0.75 l -6.53,11 H 10.53 L 20.67,23.64 11.41,8.53 h 6.19 l 5.4,10 c 0.42,0.71 0.76,1.48 1,2.27 h 0.08 c 0.3,-0.79 0.53,-1.31 0.65,-1.56 0.12,-0.25 2.21,-3.8 6.27,-10.66 h 5.68 l -9.46,15 9.58,15.28 z"
         id="path2"
         style="display:inline" />
    </g>
  </g>
  <g
     id="g22"
     inkscape:label="TRIANGLE"
     transform="matrix(0.86776557,0,0,0.86776557,-146.99949,-1.1279363)"
     style="display:none">
    <g
       id="g21">
      <path
         class="cls-7"
         d="M 196.7,54.8 A 26.3,26.3 0 1 1 223,28.6 26.33,26.33 0 0 1 196.7,54.8 Z"
         id="path20"
         style="fill:#1a1a1a" />
      <path
         class="cls-8"
         d="M 196.8,3.3 A 25.3,25.3 0 1 1 171.5,28.6 25.33,25.33 0 0 1 196.8,3.3 m 0,-2 A 27.3,27.3 0 1 0 224,28.6 27.34,27.34 0 0 0 196.8,1.3 Z"
         id="path21"
         style="fill:#0f0f0f" />
    </g>
    <path
       class="cls-12"
       d="m 212.7,36.6 -16,-27.6 -16,27.6 -1.6,2.8 h 35.2 z m -15.9,0 h -12.7 l 12.7,-21.9 12.7,21.9 z"
       id="path22"
       style="fill:#66c194" />
  </g>
  <g
     id="g19"
     inkscape:label="SQUARE"
     transform="matrix(0.86935853,0,0,0.86935853,-98.324489,-0.60855098)"
     style="display:inline">
    <g
       id="g18">
      <path
         class="cls-7"
         d="M 140.3,54.2 A 26.25,26.25 0 1 1 166.6,28 26.23,26.23 0 0 1 140.3,54.2 Z"
         id="path17"
         style="fill:#1a1a1a" />
      <path
         class="cls-8"
         d="M 140.3,2.7 A 25.25,25.25 0 1 1 115,27.9 25.33,25.33 0 0 1 140.3,2.7 m 0,-2 A 27.25,27.25 0 1 0 167.6,28 27.34,27.34 0 0 0 140.3,0.7 Z"
         id="path18"
         style="fill:#0f0f0f" />
    </g>
    <path
       class="cls-11"
       d="M 151.8,13.5 H 126 v 28.6 h 28.6 V 13.5 Z m 0,25.9 h -23 v -23 h 23 z"
       id="path19"
       style="fill:#cb79b1" />
  </g>
</svg>
